<svg width="151" height="24" viewBox="0 0 151 24" fill="none" xmlns="http://www.w3.org/2000/svg">
<path d="M12.2615 15.7617C12.2615 16.8432 11.6981 18.613 10.3646 18.613C9.031 18.613 8.4676 16.8432 8.4676 15.7617C8.4676 14.6801 9.031 12.9104 10.3646 12.9104C11.6981 12.9104 12.2615 14.6801 12.2615 15.7617ZM27.4527 13.1484C27.4527 14.7992 27.2873 16.5483 26.5482 18.0645C24.5892 22.0284 19.2033 21.9352 15.3473 21.9352C11.4293 21.9352 5.72295 22.0749 3.68644 18.0645C2.93179 16.5638 2.64233 14.7992 2.64233 13.1484C2.64233 10.9802 3.3608 8.93093 4.7874 7.26982C4.51862 6.4522 4.3894 5.59318 4.3894 4.74452C4.3894 3.63193 4.64267 3.07305 5.14405 2.06396C7.48552 2.06396 8.98448 2.5297 10.7677 3.9269C12.2667 3.56983 13.807 3.40941 15.3525 3.40941C16.7481 3.40941 18.154 3.55948 19.5082 3.8855C21.2656 2.50382 22.7646 2.06396 25.0802 2.06396C25.5868 3.07305 25.8349 3.63193 25.8349 4.74452C25.8349 5.59318 25.7005 6.43668 25.4369 7.23877C26.8583 8.91541 27.4527 10.9802 27.4527 13.1484ZM24.1291 15.7617C24.1291 13.4899 22.7491 11.4873 20.3301 11.4873C19.3531 11.4873 18.4176 11.6632 17.4355 11.7978C16.6654 11.9168 15.8952 11.9634 15.1044 11.9634C14.3187 11.9634 13.5486 11.9168 12.7732 11.7978C11.8067 11.6632 10.8608 11.4873 9.87869 11.4873C7.45968 11.4873 6.0796 13.4899 6.0796 15.7617C6.0796 20.3052 10.2353 21.0038 13.8535 21.0038H16.3449C19.9786 21.0038 24.1291 20.3103 24.1291 15.7617ZM19.8597 12.9104C18.5261 12.9104 17.9627 14.6801 17.9627 15.7617C17.9627 16.8432 18.5261 18.613 19.8597 18.613C21.1933 18.613 21.7567 16.8432 21.7567 15.7617C21.7567 14.6801 21.1933 12.9104 19.8597 12.9104Z" fill="#BABABA"/>
<path d="M68.7559 13.4868H76.6924V21.1817H73.4211L73.0308 17.8918C72.6591 19.069 71.9962 19.9426 71.042 20.5126C70.0879 21.0825 68.9232 21.3675 67.5477 21.3675C66.2962 21.3675 65.181 21.0887 64.2021 20.5311C63.2356 19.9735 62.4736 19.1743 61.916 18.1335C61.3707 17.0926 61.0981 15.8783 61.0981 14.4905C61.0981 12.2724 61.7611 10.5191 63.0869 9.23041C64.4128 7.94173 66.4759 7.29739 69.2763 7.29739C70.8748 7.29739 72.2812 7.5576 73.4955 8.07803C74.7222 8.59846 75.7631 9.40388 76.6181 10.4943C76.0605 10.7793 74.97 11.3493 73.3468 12.2043L72.8821 12.4645C72.3989 11.9812 71.8351 11.6219 71.1907 11.3865C70.5464 11.1386 69.8649 11.0147 69.1462 11.0147C67.9566 11.0147 67.0707 11.3307 66.4883 11.9627C65.9059 12.5822 65.6147 13.3505 65.6147 14.2674C65.6147 15.2587 65.9245 16.0579 66.5441 16.6651C67.176 17.2723 68.1363 17.5758 69.425 17.5758C69.9826 17.5758 70.5216 17.4953 71.042 17.3342C71.5749 17.1731 72.0209 16.8943 72.3803 16.4978H68.7559V13.4868Z" fill="#BABABA"/>
<path d="M88.9968 6.53627C87.0514 6.47432 85.1618 6.43714 83.3279 6.42475V16.127H78.6812V6.42475C76.8349 6.43714 74.9515 6.47432 73.0308 6.53627V2.63306H88.9968V6.53627Z" fill="#BABABA"/>
<path fill-rule="evenodd" clip-rule="evenodd" d="M144.775 3.68454C145.873 3.99832 146.657 4.78277 146.971 5.88101C147.599 7.92058 147.599 11.9997 147.599 11.9997C147.599 11.9997 147.599 16.0789 147.128 18.1185C146.814 19.2167 146.03 20.0011 144.932 20.3149C142.892 20.7856 135.048 20.7856 135.048 20.7856C135.048 20.7856 127.046 20.7856 125.163 20.3149C124.065 20.0011 123.281 19.2167 122.967 18.1185C122.496 16.0789 122.496 11.9997 122.496 11.9997C122.496 11.9997 122.496 7.92058 122.81 5.88101C123.124 4.78277 123.908 3.99832 125.007 3.68454C127.046 3.21387 134.891 3.21387 134.891 3.21387C134.891 3.21387 142.892 3.21387 144.775 3.68454ZM132.537 8.92363C132.537 8.6165 132.869 8.42396 133.136 8.57633L138.519 11.6524C138.788 11.806 138.788 12.1935 138.519 12.347L133.136 15.4231C132.869 15.5755 132.537 15.383 132.537 15.0758V8.92363Z" fill="#BABABA"/>
</svg>
